<?xml version="1.0" encoding="UTF-8" standalone="no"?>
<svg width="380" height="100" xmlns="http://www.w3.org/2000/svg">
  <style>
    .logo-text { fill: #1D4F8C; font-family: Arial, sans-serif; font-weight: bold; font-size: 48px; }
    .shield { fill: #1D4F8C; }
    .shield-inner { fill: white; }
    .money-bag { fill: #8BC34A; }
  </style>
  <g>
    <!-- Shield -->
    <path class="shield" d="M35,5 L75,5 C75,5 85,25 85,45 C85,65 55,90 55,90 C55,90 25,65 25,45 C25,25 35,5 35,5 Z" />
    <path class="shield-inner" d="M40,15 L70,15 C70,15 77,30 77,45 C77,60 55,80 55,80 C55,80 33,60 33,45 C33,30 40,15 40,15 Z" />
    
    <!-- Money Bag -->
    <circle class="money-bag" cx="55" cy="45" r="15" />
    <path class="shield-inner" d="M50,40 L60,40 L60,50 L55,55 L50,50 Z" />
    <path class="shield-inner" d="M55,35 L55,40 M55,55 L55,60" />
  </g>
  
  <!-- Text -->
  <text x="95" y="60" class="logo-text">MaPocket</text>
</svg>